<svg xmlns="http://www.w3.org/2000/svg" aria-hidden="true" style="position:absolute;width:0;height:0;overflow:hidden">
  <defs>
    <symbol id="icon-javascript" viewBox="0 0 24 24"><path d="M0 0h24v24H0V0zm22.034 18.276c-.175-1.095-.888-2.015-3.003-2.873-.736-.345-1.554-.585-1.797-1.14-.091-.33-.105-.51-.046-.705.15-.646.915-.84 1.515-.66.39.12.75.42.976.9 1.034-.676 1.034-.676 1.755-1.125-.27-.42-.404-.601-.586-.78-.63-.705-1.469-1.065-2.834-1.034l-.705.089c-.676.165-1.32.525-1.71 1.005-1.14 1.291-.811 3.541.569 4.471 1.365 1.02 3.361 1.244 3.616 2.205.24 1.17-.87 1.545-1.966 1.41-.811-.18-1.26-.586-1.755-1.336l-1.83 1.051c.21.48.45.689.81 1.109 1.74 1.756 6.09 1.666 6.871-1.004.029-.09.24-.705.074-1.65l.046.067zm-8.983-7.245h-2.248c0 1.938-.009 3.864-.009 5.805 0 1.232.063 2.363-.138 2.711-.33.689-1.18.601-1.566.48-.396-.196-.597-.466-.83-.855-.063-.105-.11-.196-.127-.196l-1.825 1.125c.305.63.75 1.172 1.324 1.517.855.51 2.004.675 3.207.405.783-.226 1.458-.691 1.811-1.411.51-.93.402-2.07.397-3.346.012-2.054 0-4.109 0-6.179l.004-.056z"/></symbol>
    <symbol id="icon-python" viewBox="0 0 24 24"><path d="M14.25.18l.9.2.73.26.59.3.45.32.34.34.25.34.16.33.1.3.04.26.02.2-.01.13V8.5l-.05.63-.13.55-.21.46-.26.38-.3.31-.33.25-.35.19-.35.14-.33.1-.3.07-.26.04-.21.02H8.77l-.69.05-.59.14-.5.22-.41.27-.33.32-.27.35-.2.36-.15.37-.1.35-.07.32-.04.27-.02.21v3.06H3.17l-.21-.03-.28-.07-.32-.12-.35-.18-.36-.26-.36-.36-.35-.46-.32-.59-.28-.73-.21-.88-.14-1.05-.05-1.23.06-1.22.16-1.04.24-.87.32-.71.36-.57.4-.44.42-.33.42-.24.4-.16.36-.1.32-.05.24-.01h.16l.06.01h8.16v-.83H6.18l-.01-2.75-.02-.37.05-.34.11-.31.17-.28.25-.26.31-.23.38-.2.44-.18.51-.15.58-.12.64-.1.71-.06.77-.04.84-.02 1.27.05zm-6.3 1.98l-.23.33-.08.41.08.41.23.34.33.22.41.09.41-.09.33-.22.23-.34.08-.41-.08-.41-.23-.33-.33-.22-.41-.09-.41.09zm13.09 3.95l.28.06.32.12.35.18.36.27.36.35.35.47.32.59.28.73.21.88.14 1.04.05 1.23-.06 1.23-.16 1.04-.24.86-.32.71-.36.57-.4.45-.42.33-.42.24-.4.16-.36.09-.32.05-.24.02-.16-.01h-8.22v.82h5.84l.01 2.76.02.36-.05.34-.11.31-.17.29-.25.25-.31.24-.38.2-.44.17-.51.15-.58.13-.64.09-.71.07-.77.04-.84.01-1.27-.04-1.07-.14-.9-.2-.73-.25-.59-.3-.45-.33-.34-.34-.25-.34-.16-.33-.1-.3-.04-.25-.02-.2.01-.13v-5.34l.05-.64.13-.54.21-.46.26-.38.3-.32.33-.24.35-.2.35-.14.33-.1.3-.06.26-.04.21-.02.13-.01h5.84l.69-.05.59-.14.5-.21.41-.28.33-.32.27-.35.2-.36.15-.36.1-.35.07-.32.04-.28.02-.21V6.07h2.09l.14.01zm-6.47 14.25l-.23.33-.08.41.08.41.23.33.33.23.41.08.41-.08.33-.23.23-.33.08-.41-.08-.41-.23-.33-.33-.23-.41-.08-.41.08z"/></symbol>
    <symbol id="icon-php" viewBox="0 0 24 24"><path d="M7.01 10.207h-.944l-.515 2.648h.838c.556 0 .97-.105 1.242-.314.272-.21.455-.559.55-1.049.092-.47.05-.802-.124-.995-.175-.193-.523-.29-1.047-.29zM12 5.688C5.373 5.688 0 8.514 0 12s5.373 6.313 12 6.313S24 15.486 24 12c0-3.486-5.373-6.312-12-6.312zm-3.26 7.451c-.261.25-.575.438-.917.551-.336.108-.765.164-1.285.164H5.357l-.327 1.681H3.652l1.23-6.326h2.65c.797 0 1.378.209 1.744.628.366.418.476 1.002.33 1.752a2.836 2.836 0 0 1-.305.847c-.143.255-.33.49-.561.703zm4.024.715l.543-2.799c.063-.318.039-.536-.068-.651-.107-.116-.336-.174-.687-.174H11.46l-.704 3.625H9.388l1.23-6.327h1.367l-.327 1.682h1.218c.767 0 1.295.134 1.586.401s.378.7.263 1.299l-.572 2.944h-1.389zm7.597-2.265a2.782 2.782 0 0 1-.305.847c-.143.255-.33.49-.561.703a2.44 2.44 0 0 1-.917.551c-.336.108-.765.164-1.286.164h-1.18l-.327 1.682h-1.378l1.23-6.326h2.649c.797 0 1.378.209 1.744.628.366.417.477 1.001.331 1.751zM17.766 10.207h-.943l-.516 2.648h.838c.557 0 .971-.105 1.242-.314.272-.21.455-.559.551-1.049.092-.47.049-.802-.125-.995s-.524-.29-1.047-.29z"/></symbol>
    <symbol id="icon-openjdk" viewBox="0 0 24 24"><path d="M11.915 0 11.7.215C9.515 2.4 7.47 6.39 6.046 10.483c-1.064 1.024-3.633 2.81-3.711 3.551-.093.87 1.746 2.611 1.55 3.235-.198.625-1.304 1.408-1.014 1.939.1.188.823.011 1.277-.491a13.389 13.389 0 0 0-.017 2.14c.076.906.27 1.668.643 2.232.372.563.956.911 1.667.911.397 0 .727-.114 1.024-.264.298-.149.571-.33.91-.5.68-.34 1.634-.666 3.53-.604 1.903.062 2.872.39 3.559.704.687.314 1.15.664 1.925.664.767 0 1.395-.336 1.807-.9.412-.563.631-1.33.72-2.24.06-.623.055-1.32 0-2.066.454.45 1.117.604 1.213.424.29-.53-.816-1.314-1.013-1.937-.198-.624 1.642-2.366 1.549-3.236-.08-.748-2.707-2.568-3.748-3.586C16.428 6.374 14.308 2.394 12.13.215zm.175 6.038a2.95 2.95 0 0 1 2.943 2.942 2.95 2.95 0 0 1-2.943 2.943A2.95 2.95 0 0 1 9.148 8.98a2.95 2.95 0 0 1 2.942-2.942zM8.685 7.983a3.515 3.515 0 0 0-.145.997c0 1.951 1.6 3.55 3.55 3.55 1.95 0 3.55-1.598 3.55-3.55 0-.329-.046-.648-.132-.951.334.095.64.208.915.336a42.699 42.699 0 0 1 2.042 5.829c.678 2.545 1.01 4.92.846 6.607-.082.844-.29 1.51-.606 1.94-.315.431-.713.651-1.315.651-.593 0-.932-.27-1.673-.61-.741-.338-1.825-.694-3.792-.758-1.974-.064-3.073.293-3.821.669-.375.188-.659.373-.911.5s-.466.2-.752.2c-.53 0-.876-.209-1.16-.64-.285-.43-.474-1.101-.545-1.948-.141-1.693.176-4.069.823-6.614a43.155 43.155 0 0 1 1.934-5.783c.348-.167.749-.31 1.192-.425zm-3.382 4.362a.216.216 0 0 1 .13.031c-.166.56-.323 1.116-.463 1.665a33.849 33.849 0 0 0-.547 2.555 3.9 3.9 0 0 0-.2-.39c-.58-1.012-.914-1.642-1.16-2.08.315-.24 1.679-1.755 2.24-1.781zm13.394.01c.562.027 1.926 1.543 2.24 1.783-.246.438-.58 1.068-1.16 2.08a4.428 4.428 0 0 0-.163.309 32.354 32.354 0 0 0-.562-2.49 40.579 40.579 0 0 0-.482-1.652.216.216 0 0 1 .127-.03z"/></symbol>
    <symbol id="icon-cplusplus" viewBox="0 0 24 24"><path d="M22.394 6c-.167-.29-.398-.543-.652-.69L12.926.22c-.509-.294-1.34-.294-1.848 0L2.26 5.31c-.508.293-.923 1.013-.923 1.6v10.18c0 .294.104.62.271.91.167.29.398.543.652.69l8.816 5.09c.508.293 1.34.293 1.848 0l8.816-5.09c.254-.147.485-.4.652-.69.167-.29.27-.616.27-.91V6.91c.003-.294-.1-.62-.268-.91zM12 19.11c-3.92 0-7.109-3.19-7.109-7.11 0-3.92 3.19-7.11 7.11-7.11a7.133 7.133 0 016.156 3.553l-3.076 1.78a3.567 3.567 0 00-3.08-1.78A3.56 3.56 0 008.444 12 3.56 3.56 0 0012 15.555a3.57 3.57 0 003.08-1.778l3.078 1.78A7.135 7.135 0 0112 19.11zm7.11-6.715h-.79v.79h-.79v-.79h-.79v-.79h.79v-.79h.79v.79h.79zm2.962 0h-.79v.79h-.79v-.79h-.79v-.79h.79v-.79h.79v.79h.79z"/></symbol>
    <symbol id="icon-c" viewBox="0 0 24 24"><path d="M16.5921 9.1962s-.354-3.298-3.627-3.39c-3.2741-.09-4.9552 2.474-4.9552 6.14 0 3.6651 1.858 6.5972 5.0451 6.5972 3.184 0 3.5381-3.665 3.5381-3.665l6.1041.365s.36 3.31-2.196 5.836c-2.552 2.5241-5.6901 2.9371-7.8762 2.9201-2.19-.017-5.2261.034-8.1602-2.97-2.938-3.0101-3.436-5.9302-3.436-8.8002 0-2.8701.556-6.6702 4.047-9.5502C7.444.72 9.849 0 12.254 0c10.0422 0 10.7172 9.2602 10.7172 9.2602z"/></symbol>
    <symbol id="icon-sql" viewBox="0 0 24 24"><path d="M12 3c-5.1 0-9 1.76-9 4v10c0 2.24 3.9 4 9 4s9-1.76 9-4V7c0-2.24-3.9-4-9-4Zm0 2c4.58 0 7 .98 7 2s-2.42 2-7 2-7-.98-7-2 2.42-2 7-2Zm0 6c4.58 0 7-.98 7-2v3c0 1.02-2.42 2-7 2s-7-.98-7-2V9c0 1.02 2.42 2 7 2Zm0 5c4.58 0 7-.98 7-2v3c0 1.02-2.42 2-7 2s-7-.98-7-2v-3c0 1.02 2.42 2 7 2Z"/></symbol>
    <symbol id="icon-typescript" viewBox="0 0 24 24"><path d="M1.125 0C.502 0 0 .502 0 1.125v21.75C0 23.498.502 24 1.125 24h21.75c.623 0 1.125-.502 1.125-1.125V1.125C24 .502 23.498 0 22.875 0zm17.363 9.75c.612 0 1.154.037 1.627.111a6.38 6.38 0 0 1 1.306.34v2.458a3.95 3.95 0 0 0-.643-.361 5.093 5.093 0 0 0-.717-.26 5.453 5.453 0 0 0-1.426-.2c-.3 0-.573.028-.819.086a2.1 2.1 0 0 0-.623.242c-.17.104-.3.229-.393.374a.888.888 0 0 0-.14.49c0 .196.053.373.156.529.104.156.252.304.443.444s.423.276.696.41c.273.135.582.274.926.416.47.197.892.407 1.266.628.374.222.695.473.963.753.268.279.472.598.614.957.142.359.214.776.214 1.253 0 .657-.125 1.21-.373 1.656a3.033 3.033 0 0 1-1.012 1.085 4.38 4.38 0 0 1-1.487.596c-.566.12-1.163.18-1.79.18a9.916 9.916 0 0 1-1.84-.164 5.544 5.544 0 0 1-1.512-.493v-2.63a5.033 5.033 0 0 0 3.237 1.2c.333 0 .624-.03.872-.09.249-.06.456-.144.623-.25.166-.108.29-.234.373-.38a1.023 1.023 0 0 0-.074-1.089 2.12 2.12 0 0 0-.537-.5 5.597 5.597 0 0 0-.807-.444 27.72 27.72 0 0 0-1.007-.436c-.918-.383-1.602-.852-2.053-1.405-.45-.553-.676-1.222-.676-2.005 0-.614.123-1.141.369-1.582.246-.441.58-.804 1.004-1.089a4.494 4.494 0 0 1 1.47-.629 7.536 7.536 0 0 1 1.77-.201zm-15.113.188h9.563v2.166H9.506v9.646H6.789v-9.646H3.375z"/></symbol>
    <symbol id="icon-react" viewBox="0 0 24 24"><path d="M14.23 12.004a2.236 2.236 0 0 1-2.235 2.236 2.236 2.236 0 0 1-2.236-2.236 2.236 2.236 0 0 1 2.235-2.236 2.236 2.236 0 0 1 2.236 2.236zm2.648-10.69c-1.346 0-3.107.96-4.888 2.622-1.78-1.653-3.542-2.602-4.887-2.602-.41 0-.783.093-1.106.278-1.375.793-1.683 3.264-.973 6.365C1.98 8.917 0 10.42 0 12.004c0 1.59 1.99 3.097 5.043 4.03-.704 3.113-.39 5.588.988 6.38.32.187.69.275 1.102.275 1.345 0 3.107-.96 4.888-2.624 1.78 1.654 3.542 2.603 4.887 2.603.41 0 .783-.09 1.106-.275 1.374-.792 1.683-3.263.973-6.365C22.02 15.096 24 13.59 24 12.004c0-1.59-1.99-3.097-5.043-4.032.704-3.11.39-5.587-.988-6.38-.318-.184-.688-.277-1.092-.278zm-.005 1.09v.006c.225 0 .406.044.558.127.666.382.955 1.835.73 3.704-.054.46-.142.945-.25 1.44-.96-.236-2.006-.417-3.107-.534-.66-.905-1.345-1.727-2.035-2.447 1.592-1.48 3.087-2.292 4.105-2.295zm-9.77.02c1.012 0 2.514.808 4.11 2.28-.686.72-1.37 1.537-2.02 2.442-1.107.117-2.154.298-3.113.538-.112-.49-.195-.964-.254-1.42-.23-1.868.054-3.32.714-3.707.19-.09.4-.127.563-.132zm4.882 3.05c.455.468.91.992 1.36 1.564-.44-.02-.89-.034-1.345-.034-.46 0-.915.01-1.36.034.44-.572.895-1.096 1.345-1.565zM12 8.1c.74 0 1.477.034 2.202.093.406.582.802 1.203 1.183 1.86.372.64.71 1.29 1.018 1.946-.308.655-.646 1.31-1.013 1.95-.38.66-.773 1.288-1.18 1.87-.728.063-1.466.098-2.21.098-.74 0-1.477-.035-2.202-.093-.406-.582-.802-1.204-1.183-1.86-.372-.64-.71-1.29-1.018-1.946.303-.657.646-1.313 1.013-1.954.38-.66.773-1.286 1.18-1.868.728-.064 1.466-.098 2.21-.098zm-3.635.254c-.24.377-.48.763-.704 1.16-.225.39-.435.782-.635 1.174-.265-.656-.49-1.31-.676-1.947.64-.15 1.315-.283 2.015-.386zm7.26 0c.695.103 1.365.23 2.006.387-.18.632-.405 1.282-.66 1.933-.2-.39-.41-.783-.64-1.174-.225-.392-.465-.774-.705-1.146zm3.063.675c.484.15.944.317 1.375.498 1.732.74 2.852 1.708 2.852 2.476-.005.768-1.125 1.74-2.857 2.475-.42.18-.88.342-1.355.493-.28-.958-.646-1.956-1.1-2.98.45-1.017.81-2.01 1.085-2.964zm-13.395.004c.278.96.645 1.957 1.1 2.98-.45 1.017-.812 2.01-1.086 2.964-.484-.15-.944-.318-1.37-.5-1.732-.737-2.852-1.706-2.852-2.474 0-.768 1.12-1.742 2.852-2.476.42-.18.88-.342 1.356-.494zm11.678 4.28c.265.657.49 1.312.676 1.948-.64.157-1.316.29-2.016.39.24-.375.48-.762.705-1.158.225-.39.435-.788.636-1.18zm-9.945.02c.2.392.41.783.64 1.175.23.39.465.772.705 1.143-.695-.102-1.365-.23-2.006-.386.18-.63.406-1.282.66-1.933zM17.92 16.32c.112.493.2.968.254 1.423.23 1.868-.054 3.32-.714 3.708-.147.09-.338.128-.563.128-1.012 0-2.514-.807-4.11-2.28.686-.72 1.37-1.536 2.02-2.44 1.107-.118 2.154-.3 3.113-.54zm-11.83.01c.96.234 2.006.415 3.107.532.66.905 1.345 1.727 2.035 2.446-1.595 1.483-3.092 2.295-4.11 2.295-.22-.005-.406-.05-.553-.132-.666-.38-.955-1.834-.73-3.703.054-.46.142-.944.25-1.438zm4.56.64c.44.02.89.034 1.345.034.46 0 .915-.01 1.36-.034-.44.572-.895 1.095-1.345 1.565-.455-.47-.91-.993-1.36-1.565z"/></symbol>
    <symbol id="icon-reactnative" viewBox="0 0 128 128"><path fill="currentColor" d="M37.965 6.934c-2.12.072-4.14.588-5.965 1.64c-3.648 2.106-5.826 5.97-6.805 10.543c-.978 4.574-.875 10.013.1 16.1c.376 2.347.926 4.815 1.562 7.338c-2.503.71-4.916 1.47-7.136 2.318c-5.76 2.2-10.52 4.83-13.992 7.965S0 59.788 0 64s2.256 8.03 5.729 11.164C9.2 78.3 13.96 80.93 19.72 83.13c2.22.848 4.633 1.606 7.136 2.317c-.636 2.523-1.186 4.991-1.562 7.337c-.975 6.09-1.076 11.527-.098 16.1c.98 4.575 3.155 8.438 6.803 10.544s8.08 2.06 12.531.62c4.45-1.44 9.11-4.247 13.895-8.136c1.844-1.498 3.707-3.206 5.575-5.02c1.866 1.814 3.73 3.522 5.574 5.02c4.784 3.89 9.442 6.697 13.893 8.137c4.45 1.44 8.885 1.485 12.533-.62c3.648-2.107 5.826-5.97 6.805-10.544c.978-4.574.873-10.012-.102-16.1c-.376-2.347-.924-4.815-1.56-7.338c2.503-.71 4.916-1.47 7.136-2.317c5.76-2.199 10.52-4.83 13.992-7.965S128 68.212 128 64s-2.256-8.028-5.729-11.162c-3.472-3.134-8.232-5.766-13.992-7.965c-2.22-.847-4.631-1.608-7.134-2.318c.636-2.523 1.184-4.992 1.56-7.338c.975-6.087 1.076-11.526.098-16.1S99.649 10.68 96 8.574s-8.08-2.06-12.531-.62c-4.45 1.44-9.11 4.248-13.895 8.136c-1.844 1.5-3.71 3.208-5.577 5.022c-1.867-1.813-3.73-3.523-5.574-5.022c-4.783-3.888-9.439-6.698-13.889-8.138c-2.226-.72-4.448-1.09-6.57-1.02zm.256 5.545c1.33-.038 2.854.207 4.6.77c3.49 1.13 7.675 3.57 12.093 7.16c1.702 1.382 3.443 2.982 5.197 4.69c-3.664 3.96-7.298 8.463-10.814 13.434c-6.063.56-11.78 1.456-17.043 2.65c-.6-2.374-1.116-4.68-1.463-6.847c-.9-5.62-.92-10.465-.152-14.053c.767-3.587 2.202-5.767 4.144-6.888c.971-.56 2.108-.88 3.438-.916m51.559 0c1.33.037 2.467.355 3.438.916c1.942 1.12 3.377 3.3 4.144 6.887s.75 8.433-.15 14.054c-.347 2.165-.862 4.474-1.463 6.846c-5.262-1.193-10.98-2.09-17.045-2.649c-3.516-4.97-7.152-9.474-10.816-13.435c1.754-1.707 3.497-3.308 5.199-4.69c4.418-3.592 8.603-6.028 12.094-7.158c1.745-.564 3.27-.808 4.6-.77zM64 29.102a124 124 0 0 1 7.44 8.926c-2.444-.11-4.917-.184-7.44-.184c-2.522 0-4.995.073-7.44.184A123 123 0 0 1 64 29.102m0 14.308c3.985 0 7.87.157 11.634.44a155 155 0 0 1 6.199 9.853A155 155 0 0 1 87.267 64a155 155 0 0 1-5.434 10.295a155 155 0 0 1-6.2 9.856c-3.763.283-7.648.441-11.632.441a155 155 0 0 1-11.638-.44a155 155 0 0 1-6.197-9.857a155 155 0 0 1-5.434-10.293a155 155 0 0 1 5.436-10.297a155 155 0 0 1 6.2-9.855a155 155 0 0 1 11.633-.44zm-18.773 1.163a164 164 0 0 0-3.88 6.35a164 164 0 0 0-3.56 6.534a124 124 0 0 1-4.012-10.906c3.59-.8 7.412-1.47 11.452-1.978m37.547 0a124 124 0 0 1 11.452 1.978a124 124 0 0 1-4.012 10.908a164 164 0 0 0-3.56-6.537a164 164 0 0 0-3.88-6.35zm-54.409 3.341c1.598 5.154 3.681 10.554 6.23 16.084c-2.55 5.532-4.63 10.934-6.23 16.088c-2.355-.665-4.61-1.374-6.66-2.156c-5.319-2.03-9.524-4.438-12.248-6.898c-2.723-2.458-3.893-4.79-3.893-7.033c0-2.242 1.17-4.572 3.893-7.03c2.724-2.46 6.93-4.867 12.248-6.897c2.05-.783 4.305-1.493 6.66-2.159zm71.27 0c2.356.666 4.612 1.376 6.66 2.16c5.32 2.03 9.525 4.436 12.249 6.895c2.723 2.46 3.893 4.79 3.893 7.031c0 2.243-1.17 4.575-3.893 7.033c-2.724 2.46-6.93 4.866-12.248 6.897c-2.05.782-4.307 1.49-6.662 2.156c-1.598-5.153-3.68-10.553-6.227-16.084c2.549-5.532 4.63-10.933 6.229-16.088zM64 52.592A11.41 11.41 0 0 0 52.592 64a11.41 11.41 0 0 0 11.409 11.408A11.41 11.41 0 0 0 75.409 64A11.41 11.41 0 0 0 64 52.592m26.214 17.951a124 124 0 0 1 4.01 10.908c-3.588.8-7.41 1.471-11.448 1.98a164 164 0 0 0 3.877-6.353a164 164 0 0 0 3.56-6.535zm-52.427.002a164 164 0 0 0 3.56 6.533a166 166 0 0 0 3.88 6.352a123 123 0 0 1-11.452-1.979a124 124 0 0 1 4.012-10.906M32.252 86.82c5.262 1.192 10.98 2.087 17.045 2.646c3.516 4.973 7.152 9.477 10.816 13.44c-1.754 1.705-3.495 3.305-5.197 4.69c-4.418 3.59-8.607 6.03-12.098 7.16c-3.49 1.128-6.095.973-8.037-.148c-1.942-1.122-3.375-3.3-4.142-6.887c-.768-3.588-.749-8.433.152-14.056c.347-2.165.86-4.473 1.461-6.845m63.495 0c.6 2.372 1.116 4.68 1.463 6.845c.9 5.623.92 10.468.152 14.056c-.767 3.588-2.202 5.767-4.144 6.89c-1.942 1.12-4.546 1.273-8.037.143s-7.676-3.57-12.094-7.16c-1.701-1.383-3.444-2.983-5.197-4.69c3.664-3.96 7.298-8.466 10.814-13.438c6.063-.559 11.78-1.454 17.043-2.646M56.56 89.972a164 164 0 0 0 7.441.186a164 164 0 0 0 7.442-.186a123 123 0 0 1-7.442 8.93a123 123 0 0 1-7.44-8.93z"/></symbol>
    <symbol id="icon-astro" viewBox="0 0 24 24"><path d="M8.358 20.162c-1.186-1.07-1.532-3.316-1.038-4.944.856 1.026 2.043 1.352 3.272 1.535 1.897.283 3.76.177 5.522-.678.202-.098.388-.229.608-.36.166.473.209.95.151 1.437-.14 1.185-.738 2.1-1.688 2.794-.38.277-.782.525-1.175.787-1.205.804-1.531 1.747-1.078 3.119l.044.148a3.158 3.158 0 0 1-1.407-1.188 3.31 3.31 0 0 1-.544-1.815c-.004-.32-.004-.642-.048-.958-.106-.769-.472-1.113-1.161-1.133-.707-.02-1.267.411-1.415 1.09-.012.053-.028.104-.045.165h.002zm-5.961-4.445s3.24-1.575 6.49-1.575l2.451-7.565c.092-.366.36-.614.662-.614.302 0 .57.248.662.614l2.45 7.565c3.85 0 6.491 1.575 6.491 1.575L16.088.727C15.93.285 15.663 0 15.303 0H8.697c-.36 0-.615.285-.784.727l-5.516 14.99z"/></symbol>
    <symbol id="icon-nextdotjs" viewBox="0 0 24 24"><path d="M18.665 21.978C16.758 23.255 14.465 24 12 24 5.377 24 0 18.623 0 12S5.377 0 12 0s12 5.377 12 12c0 3.583-1.574 6.801-4.067 9.001L9.219 7.2H7.2v9.596h1.615V9.251l9.85 12.727Zm-3.332-8.533 1.6 2.061V7.2h-1.6v6.245Z"/></symbol>
    <symbol id="icon-nodedotjs" viewBox="0 0 24 24"><path d="M11.998,24c-0.321,0-0.641-0.084-0.922-0.247l-2.936-1.737c-0.438-0.245-0.224-0.332-0.08-0.383 c0.585-0.203,0.703-0.25,1.328-0.604c0.065-0.037,0.151-0.023,0.218,0.017l2.256,1.339c0.082,0.045,0.197,0.045,0.272,0l8.795-5.076 c0.082-0.047,0.134-0.141,0.134-0.238V6.921c0-0.099-0.053-0.192-0.137-0.242l-8.791-5.072c-0.081-0.047-0.189-0.047-0.271,0 L3.075,6.68C2.99,6.729,2.936,6.825,2.936,6.921v10.15c0,0.097,0.054,0.189,0.139,0.235l2.409,1.392 c1.307,0.654,2.108-0.116,2.108-0.89V7.787c0-0.142,0.114-0.253,0.256-0.253h1.115c0.139,0,0.255,0.112,0.255,0.253v10.021 c0,1.745-0.95,2.745-2.604,2.745c-0.508,0-0.909,0-2.026-0.551L2.28,18.675c-0.57-0.329-0.922-0.945-0.922-1.604V6.921 c0-0.659,0.353-1.275,0.922-1.603l8.795-5.082c0.557-0.315,1.296-0.315,1.848,0l8.794,5.082c0.57,0.329,0.924,0.944,0.924,1.603 v10.15c0,0.659-0.354,1.273-0.924,1.604l-8.794,5.078C12.643,23.916,12.324,24,11.998,24z M19.099,13.993 c0-1.9-1.284-2.406-3.987-2.763c-2.731-0.361-3.009-0.548-3.009-1.187c0-0.528,0.235-1.233,2.258-1.233 c1.807,0,2.473,0.389,2.747,1.607c0.024,0.115,0.129,0.199,0.247,0.199h1.141c0.071,0,0.138-0.031,0.186-0.081 c0.048-0.054,0.074-0.123,0.067-0.196c-0.177-2.098-1.571-3.076-4.388-3.076c-2.508,0-4.004,1.058-4.004,2.833 c0,1.925,1.488,2.457,3.895,2.695c2.88,0.282,3.103,0.703,3.103,1.269c0,0.983-0.789,1.402-2.642,1.402 c-2.327,0-2.839-0.584-3.011-1.742c-0.02-0.124-0.126-0.215-0.253-0.215h-1.137c-0.141,0-0.254,0.112-0.254,0.253 c0,1.482,0.806,3.248,4.655,3.248C17.501,17.007,19.099,15.91,19.099,13.993z"/></symbol>
    <symbol id="icon-firebase" viewBox="0 0 24 24"><path d="M19.455 8.369c-.538-.748-1.778-2.285-3.681-4.569-.826-.991-1.535-1.832-1.884-2.245a146 146 0 0 0-.488-.576l-.207-.245-.113-.133-.022-.032-.01-.005L12.57 0l-.609.488c-1.555 1.246-2.828 2.851-3.681 4.64-.523 1.064-.864 2.105-1.043 3.176-.047.241-.088.489-.121.738-.209-.017-.421-.028-.632-.033-.018-.001-.035-.002-.059-.003a7.46 7.46 0 0 0-2.28.274l-.317.089-.163.286c-.765 1.342-1.198 2.869-1.252 4.416-.07 2.01.477 3.954 1.583 5.625 1.082 1.633 2.61 2.882 4.42 3.611l.236.095.071.025.003-.001a9.59 9.59 0 0 0 2.941.568q.171.006.342.006c1.273 0 2.513-.249 3.69-.742l.008.004.313-.145a9.63 9.63 0 0 0 3.927-3.335c1.01-1.49 1.577-3.234 1.641-5.042.075-2.161-.643-4.304-2.133-6.371m-7.083 6.695c.328 1.244.264 2.44-.191 3.558-1.135-1.12-1.967-2.352-2.475-3.665-.543-1.404-.87-2.74-.974-3.975.48.157.922.366 1.315.622 1.132.737 1.914 1.902 2.325 3.461zm.207 6.022c.482.368.99.712 1.513 1.028-.771.21-1.565.302-2.369.273a8 8 0 0 1-.373-.022c.458-.394.869-.823 1.228-1.279zm1.347-6.431c-.516-1.957-1.527-3.437-3.002-4.398-.647-.421-1.385-.741-2.194-.95.011-.134.026-.268.043-.4.014-.113.03-.216.046-.313.133-.689.332-1.37.589-2.025.099-.25.206-.499.321-.74l.004-.008c.177-.358.376-.719.61-1.105l.092-.152-.003-.001c.544-.851 1.197-1.627 1.942-2.311l.288.341c.672.796 1.304 1.548 1.878 2.237 1.291 1.549 2.966 3.583 3.612 4.48 1.277 1.771 1.893 3.579 1.83 5.375-.049 1.395-.461 2.755-1.195 3.933-.694 1.116-1.661 2.05-2.8 2.708-.636-.318-1.559-.839-2.539-1.599.79-1.575.952-3.28.479-5.072zm-2.575 5.397c-.725.939-1.587 1.55-2.09 1.856-.081-.029-.163-.06-.243-.093l-.065-.026c-1.49-.616-2.747-1.656-3.635-3.01-.907-1.384-1.356-2.993-1.298-4.653.041-1.19.338-2.327.882-3.379.316-.07.638-.114.96-.131l.084-.002c.162-.003.324-.003.478 0 .227.011.454.035.677.07.073 1.513.445 3.145 1.105 4.852.637 1.644 1.694 3.162 3.144 4.515z"/></symbol>
    <symbol id="icon-vuedotjs" viewBox="0 0 24 24"><path d="M24,1.61H14.06L12,5.16,9.94,1.61H0L12,22.39ZM12,14.08,5.16,2.23H9.59L12,6.41l2.41-4.18h4.43Z"/></symbol>
    <symbol id="icon-tailwindcss" viewBox="0 0 24 24"><path d="M12.001,4.8c-3.2,0-5.2,1.6-6,4.8c1.2-1.6,2.6-2.2,4.2-1.8c0.913,0.228,1.565,0.89,2.288,1.624 C13.666,10.618,15.027,12,18.001,12c3.2,0,5.2-1.6,6-4.8c-1.2,1.6-2.6,2.2-4.2,1.8c-0.913-0.228-1.565-0.89-2.288-1.624 C16.337,6.182,14.976,4.8,12.001,4.8z M6.001,12c-3.2,0-5.2,1.6-6,4.8c1.2-1.6,2.6-2.2,4.2-1.8c0.913,0.228,1.565,0.89,2.288,1.624 c1.177,1.194,2.538,2.576,5.512,2.576c3.2,0,5.2-1.6,6-4.8c-1.2,1.6-2.6,2.2-4.2,1.8c-0.913-0.228-1.565-0.89-2.288-1.624 C10.337,13.382,8.976,12,6.001,12z"/></symbol>
    <symbol id="icon-bootstrap" viewBox="0 0 24 24"><path d="M11.77 11.24H9.956V8.202h2.152c1.17 0 1.834.522 1.834 1.466 0 1.008-.773 1.572-2.174 1.572zm.324 1.206H9.957v3.348h2.231c1.459 0 2.232-.585 2.232-1.685s-.795-1.663-2.326-1.663zM24 11.39v1.218c-1.128.108-1.817.944-2.226 2.268-.407 1.319-.463 2.937-.42 4.186.045 1.3-.968 2.5-2.337 2.5H4.985c-1.37 0-2.383-1.2-2.337-2.5.043-1.249-.013-2.867-.42-4.186-.41-1.324-1.1-2.16-2.228-2.268V11.39c1.128-.108 1.819-.944 2.227-2.268.408-1.319.464-2.937.42-4.186-.045-1.3.968-2.5 2.338-2.5h14.032c1.37 0 2.382 1.2 2.337 2.5-.043 1.249.013 2.867.42 4.186.409 1.324 1.098 2.16 2.226 2.268zm-7.927 2.817c0-1.354-.953-2.333-2.368-2.488v-.057c1.04-.169 1.856-1.135 1.856-2.213 0-1.537-1.213-2.538-3.062-2.538h-4.16v10.172h4.181c2.218 0 3.553-1.086 3.553-2.876z"/></symbol>
    <symbol id="icon-mysql" viewBox="0 0 24 24"><path d="M16.405 5.501c-.115 0-.193.014-.274.033v.013h.014c.054.104.146.18.214.273.054.107.1.214.154.32l.014-.015c.094-.066.14-.172.14-.333-.04-.047-.046-.094-.08-.14-.04-.067-.126-.1-.18-.153zM5.77 18.695h-.927a50.854 50.854 0 00-.27-4.41h-.008l-1.41 4.41H2.45l-1.4-4.41h-.01a72.892 72.892 0 00-.195 4.41H0c.055-1.966.192-3.81.41-5.53h1.15l1.335 4.064h.008l1.347-4.064h1.095c.242 2.015.384 3.86.428 5.53zm4.017-4.08c-.378 2.045-.876 3.533-1.492 4.46-.482.716-1.01 1.073-1.583 1.073-.153 0-.34-.046-.566-.138v-.494c.11.017.24.026.386.026.268 0 .483-.075.647-.222.197-.18.295-.382.295-.605 0-.155-.077-.47-.23-.944L6.23 14.615h.91l.727 2.36c.164.536.233.91.205 1.123.4-1.064.678-2.227.835-3.483zm12.325 4.08h-2.63v-5.53h.885v4.85h1.745zm-3.32.135l-1.016-.5c.09-.076.177-.158.255-.25.433-.506.648-1.258.648-2.253 0-1.83-.718-2.746-2.155-2.746-.704 0-1.254.232-1.65.697-.43.508-.646 1.256-.646 2.245 0 .972.19 1.686.574 2.14.35.41.877.615 1.583.615.264 0 .506-.033.725-.098l1.325.772.36-.622zM15.5 17.588c-.225-.36-.337-.94-.337-1.736 0-1.393.424-2.09 1.27-2.09.443 0 .77.167.977.5.224.362.336.936.336 1.723 0 1.404-.424 2.108-1.27 2.108-.445 0-.77-.167-.978-.5zm-1.658-.425c0 .47-.172.856-.516 1.156-.344.3-.803.45-1.384.45-.543 0-1.064-.172-1.573-.515l.237-.476c.438.22.833.328 1.19.328.332 0 .593-.073.783-.22a.754.754 0 00.3-.615c0-.33-.23-.61-.648-.845-.388-.213-1.163-.657-1.163-.657-.422-.307-.632-.636-.632-1.177 0-.45.157-.81.47-1.085.315-.278.72-.415 1.22-.415.512 0 .98.136 1.4.41l-.213.476a2.726 2.726 0 00-1.064-.23c-.283 0-.502.068-.654.206a.685.685 0 00-.248.524c0 .328.234.61.666.85.393.215 1.187.67 1.187.67.433.305.648.63.648 1.168zm9.382-5.852c-.535-.014-.95.04-1.297.188-.1.04-.26.04-.274.167.055.053.063.14.11.214.08.134.218.313.346.407.14.11.28.216.427.31.26.16.555.255.81.416.145.094.293.213.44.313.073.05.12.14.214.172v-.02c-.046-.06-.06-.147-.105-.214-.067-.067-.134-.127-.2-.193a3.223 3.223 0 00-.695-.675c-.214-.146-.682-.35-.77-.595l-.013-.014c.146-.013.32-.066.46-.106.227-.06.435-.047.67-.106.106-.027.213-.06.32-.094v-.06c-.12-.12-.21-.283-.334-.395a8.867 8.867 0 00-1.104-.823c-.21-.134-.476-.22-.697-.334-.08-.04-.214-.06-.26-.127-.12-.146-.19-.34-.275-.514a17.69 17.69 0 01-.547-1.163c-.12-.262-.193-.523-.34-.763-.69-1.137-1.437-1.826-2.586-2.5-.247-.14-.543-.2-.856-.274-.167-.008-.334-.02-.5-.027-.11-.047-.216-.174-.31-.235-.38-.24-1.364-.76-1.644-.072-.18.434.267.862.422 1.082.115.153.26.328.34.5.047.116.06.235.107.356.106.294.207.622.347.897.073.14.153.287.247.413.054.073.146.107.167.227-.094.136-.1.334-.154.5-.24.757-.146 1.693.194 2.25.107.166.362.534.703.393.3-.12.234-.5.32-.835.02-.08.007-.133.048-.187v.015c.094.188.188.367.274.555.206.328.566.668.867.895.16.12.287.328.487.402v-.02h-.015c-.043-.058-.1-.086-.154-.133a3.445 3.445 0 01-.35-.4 8.76 8.76 0 01-.747-1.218c-.11-.21-.202-.436-.29-.643-.04-.08-.04-.2-.107-.24-.1.146-.247.273-.32.453-.127.288-.14.642-.188 1.01-.027.007-.014 0-.027.014-.214-.052-.287-.274-.367-.46-.2-.475-.233-1.238-.06-1.785.047-.14.247-.582.167-.716-.042-.127-.174-.2-.247-.303a2.478 2.478 0 01-.24-.427c-.16-.374-.24-.788-.414-1.162-.08-.173-.22-.354-.334-.513-.127-.18-.267-.307-.368-.52-.033-.073-.08-.194-.027-.274.014-.054.042-.075.094-.09.088-.072.335.022.422.062.247.1.455.194.662.334.094.066.195.193.315.226h.14c.214.047.455.014.655.073.355.114.675.28.962.46a5.953 5.953 0 012.085 2.286c.08.154.115.295.188.455.14.33.313.663.455.982.14.315.275.636.476.897.1.14.502.213.682.286.133.06.34.115.46.188.23.14.454.3.67.454.11.076.443.243.463.378z"/></symbol>
    <symbol id="icon-wordpress" viewBox="0 0 24 24"><path d="M21.469 6.825c.84 1.537 1.318 3.3 1.318 5.175 0 3.979-2.156 7.456-5.363 9.325l3.295-9.527c.615-1.54.82-2.771.82-3.864 0-.405-.026-.78-.07-1.11m-7.981.105c.647-.03 1.232-.105 1.232-.105.582-.075.514-.93-.067-.899 0 0-1.755.135-2.88.135-1.064 0-2.85-.15-2.85-.15-.585-.03-.661.855-.075.885 0 0 .54.061 1.125.09l1.68 4.605-2.37 7.08L5.354 6.9c.649-.03 1.234-.1 1.234-.1.585-.075.516-.93-.065-.896 0 0-1.746.138-2.874.138-.2 0-.438-.008-.69-.015C4.911 3.15 8.235 1.215 12 1.215c2.809 0 5.365 1.072 7.286 2.833-.046-.003-.091-.009-.141-.009-1.06 0-1.812.923-1.812 1.914 0 .89.513 1.643 1.06 2.531.411.72.89 1.643.89 2.977 0 .915-.354 1.994-.821 3.479l-1.075 3.585-3.9-11.61.001.014zM12 22.784c-1.059 0-2.081-.153-3.048-.437l3.237-9.406 3.315 9.087c.024.053.05.101.078.149-1.12.393-2.325.609-3.582.609M1.211 12c0-1.564.336-3.05.935-4.39L7.29 21.709C3.694 19.96 1.212 16.271 1.211 12M12 0C5.385 0 0 5.385 0 12s5.385 12 12 12 12-5.385 12-12S18.615 0 12 0"/></symbol>
    <symbol id="icon-powerbi" viewBox="0 0 24 24"><rect x="3" y="13" width="3.25" height="7" rx="1.1" fill="currentColor"/><rect x="8.25" y="10" width="3.25" height="10" rx="1.1" fill="currentColor"/><rect x="13.5" y="6.5" width="3.25" height="13.5" rx="1.1" fill="currentColor"/><rect x="18.75" y="3" width="2.25" height="17" rx="1.1" fill="currentColor"/></symbol>
    <symbol id="icon-canvas" viewBox="0 0 24 24"><path d="M.4403 15.4142a13.7061 13.7061 0 0 1-.4362-3.4403 13.7 13.7 0 0 1 .4362-3.4401c1.7144.2103 3.0438 1.6686 3.0438 3.44 0 1.771-1.3287 3.23-3.0438 3.4404zm3.9728-3.4403c0 .6004.4866 1.0873 1.0872 1.0873.601 0 1.088-.487 1.088-1.0873s-.487-1.088-1.088-1.088c-.6006 0-1.0872.4876-1.0872 1.088zM23.56 8.5338c-1.7151.2103-3.044 1.6686-3.044 3.44 0 1.771 1.3289 3.23 3.044 3.4404a13.7313 13.7313 0 0 0 .436-3.4403c0-1.1883-.1518-2.3413-.436-3.4401zm-6.148 3.44c0 .6005.4865 1.0874 1.0877 1.0874.6002 0 1.088-.487 1.088-1.0873s-.4878-1.088-1.088-1.088c-.6012 0-1.0877.4876-1.0877 1.088zm-5.4347 8.5465c-1.7709 0-3.229 1.33-3.44 3.044a13.7364 13.7364 0 0 0 3.441.4357c1.1885 0 2.3403-.1515 3.44-.4357-.2107-1.714-1.6687-3.044-3.441-3.044zm.001-3.1046c-.6012 0-1.0878.4876-1.0878 1.0883s.4866 1.0882 1.0878 1.0882c.6 0 1.087-.4874 1.087-1.0882s-.487-1.0883-1.087-1.0883zm0-13.936c1.7713 0 3.2295-1.3292 3.4399-3.0438A13.7353 13.7353 0 0 0 11.9782 0c-1.1887 0-2.3412.1519-3.441.4359.211 1.7146 1.6691 3.0438 3.441 3.0438zm0 .9291c-.6012 0-1.0878.4866-1.0878 1.0876 0 .6002.4866 1.0876 1.0878 1.0876.6 0 1.087-.4874 1.087-1.0876 0-.601-.487-1.0876-1.087-1.0876zm6.032 13.5965c-1.2514 1.2523-1.344 3.2211-.2825 4.582a13.762 13.762 0 0 0 4.8636-4.8654c-1.3608-1.0597-3.3299-.9673-4.5812.2834zm-.6568-2.1948c-.425-.4245-1.1135-.4245-1.539 0-.4243.4252-.4243 1.1136 0 1.5383.4255.4253 1.114.4253 1.539 0 .424-.4247.424-1.1131 0-1.5383zM5.9648 5.9603c1.2516-1.2513 1.3437-3.2206.2825-4.5813a13.7677 13.7677 0 0 0-4.8644 4.8643c1.3612 1.0616 3.3306.9687 4.582-.283zm.6567.6572c-.424.4247-.424 1.1139 0 1.5383.4245.4246 1.114.4246 1.5382 0 .4248-.4244.4248-1.1136 0-1.5383-.4243-.4243-1.1137-.4243-1.5382 0zm15.9625-.3857a13.7597 13.7597 0 0 0-4.8637-4.8642c-1.0614 1.3609-.969 3.33.2823 4.5818 1.2517 1.2507 3.2204 1.3436 4.5814.2824zM17.346 8.1443c.4237-.4248.4237-1.1135 0-1.5383-.425-.4247-1.1145-.4247-1.5388 0-.4241.4248-.4241 1.1135 0 1.5383.4243.4243 1.1137.4243 1.5388 0zM1.3772 17.7087a13.763 13.763 0 0 0 4.8647 4.8654c1.0613-1.3608.9685-3.3297-.2833-4.5818-1.2512-1.251-3.2204-1.3436-4.5814-.2836zm5.2385-1.9115c-.4238.4247-.4238 1.1136 0 1.5384.425.4246 1.1141.4246 1.5382 0 .425-.4248.425-1.1137 0-1.5384-.4241-.4245-1.1131-.4245-1.5382 0z"/></symbol>
    <symbol id="icon-threedsmax" viewBox="0 0 128 128"><path fill="currentColor" d="M23.188.019L114.438 20h9.874v108h-103.5a6.5 6.5 0 0 1-6.5-6.5V94.287L22.996.3Z"/><path fill="currentColor" d="M23.188 0h85.75a6.5 6.5 0 0 1 6.5 6.5V90h-92.25z"/><path fill="currentColor" d="M23.188 90V0l-19.5 11.75v90z"/><path fill="currentColor" d="M68.53 19c-11.828 0-18.455 6.84-18.81 14.464h11.684c.285-3.135 2.21-5.771 6.413-5.771c3.634 0 5.842 1.639 5.842 4.916v1.71c0 4.133-3.633 5.273-7.196 5.273h-3.848v8.336h3.848c3.563 0 8.978.927 8.978 6.342v1.496c0 4.488-2.85 6.555-7.197 6.555c-4.987 0-7.054-2.85-7.41-5.843H49.15c.784 7.34 5.772 14.678 19.737 14.678c10.901 0 18.952-5.914 18.952-13.965v-3.349c0-6.484-5.913-9.833-10.83-10.688c4.917-1.14 8.907-4.773 8.907-8.977v-2.708C85.915 24.13 78.647 19 68.53 19M41.3 98.865v18.9h4.05v-12.69l3.347 12.69h4.455v-.026l3.16-12.177v12.204h4.481v-18.9h-5.778l.027.053l-3.996 15.12l-3.807-15.174zm27.318 0l-5.4 18.9h4.698l1.053-4.13h5.67l1.16 4.13h4.807l-5.697-18.9Zm13.94 0l5.345 8.91l-5.967 9.99h5.184l3.7-7.127l3.644 7.128h5.32l-5.968-10.395l5.373-8.505h-4.995l-3.267 6.02H90.9l-3.186-6.02zm-10.808 3.106l1.97 8.154h-3.887Z"/></symbol>
    <symbol id="icon-unity" viewBox="0 0 24 24"><path d="m12.9288 4.2939 3.7997 2.1929c.1366.077.1415.2905 0 .3675l-4.515 2.6076a.4192.4192 0 0 1-.4246 0L7.274 6.8543c-.139-.0745-.1415-.293 0-.3675l3.7972-2.193V0L1.3758 5.5977V16.793l3.7177-2.1456v-4.3858c-.0025-.1565.1813-.2682.318-.1838l4.5148 2.6076a.4252.4252 0 0 1 .2136.3676v5.2127c.0025.1565-.1813.2682-.3179.1838l-3.7996-2.1929-3.7178 2.1457L12 24l9.6954-5.5977-3.7178-2.1457-3.7996 2.1929c-.1341.082-.3229-.0248-.3179-.1838V13.053c0-.1565.087-.2956.2136-.3676l4.5149-2.6076c.134-.082.3228.0224.3179.1838v4.3858l3.7177 2.1456V5.5977L12.9288 0Z"/></symbol>
    <symbol id="icon-autocad" viewBox="0 0 24 24"><path d="M3.8672 1.0527v.0157L0 3.3848v17.914l3.8965-2.332h18.3398V2.3301c0-.702-.5773-1.2774-1.2793-1.2774H3.8672zm7.5058 4.0098h3.3008l2.9844 9.9512h-2.5879l-.5683-2.1895h-2.9844l-.5703 2.1621h-2.416l2.8417-9.9238zm11.8633.0273v14.877H4.172l-2.0684 1.2383v.4648c0 .702.5793 1.2774 1.2813 1.2774H24V5.0898h-.7637zM12.9668 6.6816l-.9941 4.3243h2.0468l-1.0527-4.3243z"/></symbol>
    <symbol id="icon-excelexcel" viewBox="0 0 24 24"><path fill="currentColor" d="M21.17 3.25q.33 0 .59.25q.24.24.24.58v15.84q0 .34-.24.58q-.26.25-.59.25H7.83q-.33 0-.59-.25q-.24-.24-.24-.58V17H2.83q-.33 0-.59-.24Q2 16.5 2 16.17V7.83q0-.33.24-.59Q2.5 7 2.83 7H7V4.08q0-.34.24-.58q.26-.25.59-.25M7 13.06l1.18 2.22h1.79L8 12.06l1.93-3.17H8.22L7.13 10.9l-.04.06l-.03.07q-.26-.53-.56-1.07q-.25-.53-.53-1.07H4.16l1.89 3.19L4 15.28h1.78m8.1 4.22V17H8.25v2.5m5.63-3.75v-3.12H12v3.12m1.88-4.37V8.25H12v3.13M13.88 7V4.5H8.25V7m12.5 12.5V17h-5.62v2.5m5.62-3.75v-3.12h-5.62v3.12m5.62-4.37V8.25h-5.62v3.13M20.75 7V4.5h-5.62V7Z"/></symbol>
  </defs>
</svg>
